<svg width="160" height="215" viewBox="0 0 160 215" fill="none" xmlns="http://www.w3.org/2000/svg">
<path fill-rule="evenodd" clip-rule="evenodd" d="M56.7878 24.4818C62.3487 18.9727 68.9835 12.9872 75.9959 8.41067C82.3573 4.25902 92.4256 -1.02524 103.942 0.172557C107.021 0.49281 109.756 1.21243 112.183 2.22683C126.372 5.84481 131.824 18.7532 133.6 26.421C135.634 35.2033 135.286 45.1861 134.495 53.4072C134.163 56.8513 133.7 60.4008 133.169 63.8915C134.485 64.2326 135.814 64.6652 137.145 65.2056C140.431 66.075 143.796 67.5178 147.053 69.7886C154.496 74.9768 157.52 82.4218 158.525 88.3458C159.479 93.9681 158.861 99.2839 158.108 103.16C156.591 110.976 153.467 118.061 152.123 120.924C148.026 129.656 136.495 151.919 121.159 172.061C114.301 181.068 105.678 192.384 96.6612 200.672C92.1128 204.853 86.4783 209.211 79.9134 211.996C73.0381 214.913 64.2703 216.42 55.0423 213.165C54.5904 213.006 54.1486 212.838 53.7166 212.662C52.8909 212.443 52.0603 212.187 51.226 211.893C38.7782 207.502 33.9522 196.545 32.0869 189.535C30.1413 182.224 29.9262 174.13 30.1732 167.125C30.258 164.722 30.4108 162.233 30.6121 159.707C27.9408 159.52 25.0044 158.953 22.0507 157.696C20.674 157.355 19.2691 156.888 17.8625 156.262C8.28294 151.997 3.26748 144.074 1.26206 136.391C-0.485433 129.697 -0.0711112 122.933 0.458753 118.11C1.29411 110.506 4.84885 101.578 8.05678 94.4949C11.5812 86.7125 15.9738 78.435 20.1899 71.2622C28.985 56.2998 45.3127 35.8502 56.7878 24.4818Z" fill="black"/>
<path d="M93.7785 153.659C80.2523 172.129 64.9746 192.574 51.9439 187.795C38.9133 183.016 45.7709 146.151 48.5142 123.622C42.9231 127.783 27.4778 136.058 21.5781 133.327C15.6783 130.597 15.0517 123.672 15.9375 115.29C16.8232 106.908 24.7903 89.821 32.2727 76.5865C39.7552 63.3521 54.2697 44.4218 64.1608 34.234C74.0518 24.0462 85.274 14.759 93.9461 15.6968C112.202 17.6709 98.3586 72.4189 96.5224 82.6606C103.381 80.6125 115.138 74.5333 122.584 79.9298C130.029 85.3263 123.356 101.802 121.211 106.553C117.638 114.471 107.305 135.189 93.7785 153.659Z" fill="white"/>
<path d="M93.7785 153.659C80.2523 172.129 64.9746 192.574 51.9439 187.795C38.9133 183.016 45.7709 146.151 48.5142 123.622C42.9231 127.783 27.4778 136.058 21.5781 133.327C15.6783 130.597 15.0517 123.672 15.9375 115.29C16.8232 106.908 24.7903 89.821 32.2727 76.5865C39.7552 63.3521 54.2697 44.4218 64.1608 34.234C74.0518 24.0462 85.274 14.759 93.9461 15.6968C112.202 17.6709 98.3586 72.4189 96.5224 82.6606C103.381 80.6125 115.138 74.5333 122.584 79.9298C130.029 85.3263 123.356 101.802 121.211 106.553C117.638 114.471 107.305 135.189 93.7785 153.659Z" fill="white"/>
</svg>
